<?xml version="1.0" encoding="UTF-8"?>
<svg id="Layer_1" data-name="Layer 1" xmlns="http://www.w3.org/2000/svg" viewBox="0 0 125.69 104.46">
  <defs>
    <style>
      .cls-1 {
        fill: #008fbf;
      }
    </style>
  </defs>
  <path class="cls-1" d="m52.93,0H5.19C2.32,0,0,2.32,0,5.19v47.74c0,2.86,2.32,5.19,5.19,5.19h18.27c-.48,21.16-14.76,30.54-20.8,33.57-1.44.72-2.03,2.45-1.33,3.9l3.52,7.24c.61,1.26,2.04,1.9,3.4,1.54,26.11-6.94,48.84-23.51,49.87-46.25V5.19c0-2.86-2.32-5.19-5.19-5.19Z"/>
  <path class="cls-1" d="m120.51,0h-47.74c-2.86,0-5.19,2.32-5.19,5.19v47.74c0,2.86,2.32,5.19,5.19,5.19h18.27c-.48,21.16-14.76,30.54-20.8,33.57-1.44.72-2.03,2.45-1.33,3.9l3.52,7.24c.61,1.26,2.04,1.9,3.4,1.54,26.11-6.94,48.84-23.51,49.87-46.25V5.19c0-2.86-2.32-5.19-5.19-5.19Z"/>
</svg>